<svg xmlns="http://www.w3.org/2000/svg" width="900" height="220" viewBox="0 0 900 220" role="img" aria-labelledby="title desc">
<title id="title">Povvo code spectrum</title>
<desc id="desc">Byte-weighted language proportions from public repositories for @povvo, or an explicit empty state when no language data is published.</desc>
<defs>
<linearGradient id="edge" x1="0" x2="1"><stop offset="0" stop-color="#0B2B34" stop-opacity="0"/><stop offset="1" stop-color="#0B2B34" stop-opacity="0.085"/></linearGradient>
<pattern id="grain" width="20" height="20" patternUnits="userSpaceOnUse"><circle cx="2" cy="4" r=".45" fill="#DCE4DF"/><circle cx="13" cy="8" r=".35" fill="#DCE4DF"/><circle cx="7" cy="17" r=".3" fill="#DCE4DF"/></pattern>
<style>
.micro{font-family:ui-monospace,SFMono-Regular,Menlo,Consolas,monospace;font-size:10px;font-weight:700;letter-spacing:1.1px;fill:#25343A}
.micro9{font-family:ui-monospace,SFMono-Regular,Menlo,Consolas,monospace;font-size:9px;font-weight:700;letter-spacing:1px;fill:#25343A}
.body{font-family:Inter,Arial,Helvetica,sans-serif;font-size:14px;font-weight:600;fill:#050706}
.bodybold{font-family:Inter,Arial,Helvetica,sans-serif;font-size:14px;font-weight:700;fill:#050706}
.display{font-family:Inter,Arial Narrow,Helvetica,sans-serif;font-size:27px;font-weight:900;font-style:italic;fill:#050706;font-variant-numeric:tabular-nums}
.utility{font-family:ui-monospace,SFMono-Regular,Menlo,Consolas,monospace;font-size:11px;font-weight:700;fill:#050706;font-variant-numeric:tabular-nums}
.inverse{fill:#D8ECF8}
</style>
</defs>
<rect width="900" height="220" fill="#F4F6F1"/>
<rect width="900" height="220" fill="url(#grain)" opacity=".18"/>
<rect x=".5" y=".5" width="899" height="219" fill="none" stroke="#6E9DB2" stroke-opacity=".72"/>
<rect x="872" width="28" height="220" fill="url(#edge)"/>
<text x="40" y="42" class="micro">CODE SPECTRUM / 05</text>
<path d="M40 53H70" stroke="#050706" stroke-width="1.25"/>
<path d="M70 53H106" stroke="#6E9DB2" stroke-width=".8"/>
<path d="M200 56H744" stroke="#6E9DB2" stroke-width=".8"/>
<path d="M200.0 52.0V60.0" stroke="#6E9DB2" stroke-width=".7"/>
<path d="M254.4 54.0V58.0" stroke="#6E9DB2" stroke-width=".7"/>
<path d="M308.8 54.0V58.0" stroke="#6E9DB2" stroke-width=".7"/>
<path d="M363.2 54.0V58.0" stroke="#6E9DB2" stroke-width=".7"/>
<path d="M417.6 54.0V58.0" stroke="#6E9DB2" stroke-width=".7"/>
<path d="M472.0 52.0V60.0" stroke="#6E9DB2" stroke-width=".7"/>
<path d="M526.4 54.0V58.0" stroke="#6E9DB2" stroke-width=".7"/>
<path d="M580.8 54.0V58.0" stroke="#6E9DB2" stroke-width=".7"/>
<path d="M635.2 54.0V58.0" stroke="#6E9DB2" stroke-width=".7"/>
<path d="M689.6 54.0V58.0" stroke="#6E9DB2" stroke-width=".7"/>
<path d="M744.0 52.0V60.0" stroke="#6E9DB2" stroke-width=".7"/>
<text x="200" y="49" class="micro9">0</text>
<text x="744" y="49" text-anchor="end" class="micro9">100% SCALE</text>
<path d="M200 98H744" stroke="#DCE4DF" stroke-width="2"/>
<text x="40" y="104" class="bodybold">NO PUBLIC LANGUAGE DATA</text>
<text x="40" y="209" class="micro9">BYTE-WEIGHTED / PUBLIC REPOSITORIES</text>
</svg>